<?xml version="1.0" standalone="no"?>
<!DOCTYPE svg PUBLIC "-//W3C//DTD SVG 20010904//EN"
 "http://www.w3.org/TR/2001/REC-SVG-20010904/DTD/svg10.dtd">
<svg version="1.0" xmlns="http://www.w3.org/2000/svg"
 width="160.000000pt" height="160.000000pt" viewBox="0 0 160.000000 160.000000"
 preserveAspectRatio="xMidYMid meet">
<metadata>
Created by potrace 1.11, written by Peter Selinger 2001-2013
</metadata>
<g transform="translate(0.000000,160.000000) scale(0.100000,-0.100000)"
fill="#000000" stroke="none">
<path d="M1179 1526 c-3 -3 -20 -8 -38 -11 -53 -9 -111 -43 -161 -96 -47 -49
-47 -49 -65 -29 -25 27 -151 89 -195 96 -162 25 -304 -16 -410 -117 -66 -63
-121 -158 -136 -234 -2 -11 -6 -31 -9 -45 -3 -14 -8 -59 -12 -100 -3 -41 -10
-78 -16 -82 -5 -3 -22 -5 -37 -3 -55 7 -54 19 -54 -409 0 -218 3 -399 7 -402
3 -4 254 -7 556 -7 l550 0 33 -28 33 -29 70 73 70 73 -1 307 0 307 23 15 c13
9 23 24 23 35 0 10 17 39 38 63 78 89 112 166 117 260 2 32 -1 73 -7 90 -16
50 -55 130 -75 153 -36 41 -114 94 -156 105 -47 12 -141 22 -148 15z m102 -93
c74 -44 77 -152 6 -200 -80 -55 -178 -5 -181 91 -2 94 96 155 175 109z m-537
-122 c44 -19 135 -99 136 -118 4 -78 11 -117 30 -158 27 -62 36 -125 18 -126
-57 -5 -602 -3 -610 2 -12 8 -4 134 12 194 15 54 65 135 102 164 84 68 215 85
312 42z"/>
</g>
</svg>
